<?xml version="1.0" encoding="utf-8"?>
<!-- Generator: Adobe Illustrator 16.0.0, SVG Export Plug-In . SVG Version: 6.00 Build 0)  -->
<!DOCTYPE svg PUBLIC "-//W3C//DTD SVG 1.1//EN" "http://www.w3.org/Graphics/SVG/1.1/DTD/svg11.dtd">
<svg version="1.1" id="Layer_1" xmlns="http://www.w3.org/2000/svg" xmlns:xlink="http://www.w3.org/1999/xlink" x="0px" y="0px" width="595.28px" height="841.89px" viewBox="0 0 59.528 84.189" enable-background="new 0 0 59.528 84.189" xml:space="preserve">
<line fill="none" stroke="#000000" stroke-miterlimit="10" x1="0.0" y1="0.0" x2="37.1" y2="0.0"/>
<line fill="none" stroke="#000000" stroke-miterlimit="10" x1="24.5" y1="84.0" x2="55.16" y2="84.0"/>
<line fill="none" stroke="#000000" stroke-miterlimit="10" x1="21.875" y1="84.0" x2="10.35" y2="84.0"/>
<line fill="none" stroke="#000000" stroke-miterlimit="10" x1="7.5" y1="50.4" x2="7.5" y2="47.46"/>
<line fill="none" stroke="#000000" stroke-miterlimit="10" x1="21.125" y1="93.66" x2="17.0" y2="93.66"/>
<line fill="none" stroke="#000000" stroke-miterlimit="10" x1="39.2" y1="25.2" x2="55.16" y2="25.2"/>
<line fill="none" stroke="#000000" stroke-miterlimit="10" x1="59.975" y1="46.2" x2="55.16" y2="46.2"/>
<line fill="none" stroke="#000000" stroke-miterlimit="10" x1="55.16" y1="50.4" x2="55.16" y2="84.0"/>
<line fill="none" stroke="#000000" stroke-miterlimit="10" x1="55.16" y1="42.0" x2="49.7" y2="42.0"/>
<line fill="none" stroke="#000000" stroke-miterlimit="10" x1="7.5" y1="50.4" x2="21.875" y2="50.4"/>
<line fill="none" stroke="#000000" stroke-miterlimit="10" x1="38.78" y1="117.6" x2="38.78" y2="86.52"/>
<line fill="none" stroke="#000000" stroke-miterlimit="10" x1="24.5" y1="117.6" x2="4.0" y2="117.6"/>
<line fill="none" stroke="#000000" stroke-miterlimit="10" x1="82.6" y1="25.2" x2="82.6" y2="47.46"/>
<line fill="none" stroke="#000000" stroke-miterlimit="10" x1="79.975" y1="86.52" x2="79.975" y2="117.6"/>
<line fill="none" stroke="#000000" stroke-miterlimit="10" x1="0.0" y1="84.0" x2="10.35" y2="84.0"/>
<line fill="none" stroke="#000000" stroke-miterlimit="10" x1="37.1" y1="25.2" x2="37.1" y2="42.0"/>
<line fill="none" stroke="#000000" stroke-miterlimit="10" x1="0.0" y1="47.46" x2="7.5" y2="47.46"/>
<line fill="none" stroke="#000000" stroke-miterlimit="10" x1="24.5" y1="117.6" x2="24.5" y2="96.6"/>
<line fill="none" stroke="#000000" stroke-miterlimit="10" x1="59.975" y1="47.46" x2="59.975" y2="46.2"/>
<line fill="none" stroke="#000000" stroke-miterlimit="10" x1="8.925" y1="93.66" x2="8.925" y2="86.52"/>
<line fill="none" stroke="#000000" stroke-miterlimit="10" x1="37.1" y1="0.0" x2="37.1" y2="22.26"/>
<line fill="none" stroke="#000000" stroke-miterlimit="10" x1="21.125" y1="86.52" x2="21.125" y2="93.66"/>
<line fill="none" stroke="#000000" stroke-miterlimit="10" x1="10.35" y1="86.52" x2="10.35" y2="84.0"/>
<line fill="none" stroke="#000000" stroke-miterlimit="10" x1="59.975" y1="47.46" x2="67.5" y2="47.46"/>
<line fill="none" stroke="#000000" stroke-miterlimit="10" x1="32.9" y1="25.2" x2="37.1" y2="25.2"/>
<line fill="none" stroke="#000000" stroke-miterlimit="10" x1="17.0" y1="33.6" x2="17.0" y2="25.2"/>
<line fill="none" stroke="#000000" stroke-miterlimit="10" x1="82.6" y1="47.46" x2="75.1" y2="47.46"/>
<line fill="none" stroke="#000000" stroke-miterlimit="10" x1="38.78" y1="117.6" x2="36.26" y2="117.6"/>
<line fill="none" stroke="#000000" stroke-miterlimit="10" x1="24.5" y1="96.6" x2="24.5" y2="86.52"/>
<line fill="none" stroke="#000000" stroke-miterlimit="10" x1="0.0" y1="33.6" x2="0.0" y2="25.2"/>
<line fill="none" stroke="#000000" stroke-miterlimit="10" x1="8.925" y1="86.52" x2="10.35" y2="86.52"/>
<line fill="none" stroke="#000000" stroke-miterlimit="10" x1="37.1" y1="42.0" x2="39.2" y2="42.0"/>
<line fill="none" stroke="#000000" stroke-miterlimit="10" x1="72.25" y1="86.52" x2="73.2" y2="86.52"/>
<line fill="none" stroke="#000000" stroke-miterlimit="10" x1="37.1" y1="42.0" x2="32.9" y2="42.0"/>
<line fill="none" stroke="#000000" stroke-miterlimit="10" x1="32.9" y1="22.26" x2="37.1" y2="22.26"/>
<line fill="none" stroke="#000000" stroke-miterlimit="10" x1="58.1" y1="84.0" x2="58.1" y2="50.4"/>
<line fill="none" stroke="#000000" stroke-miterlimit="10" x1="0.0" y1="47.46" x2="0.0" y2="33.6"/>
<line fill="none" stroke="#000000" stroke-miterlimit="10" x1="82.6" y1="84.0" x2="72.25" y2="84.0"/>
<line fill="none" stroke="#000000" stroke-miterlimit="10" x1="8.925" y1="93.66" x2="17.0" y2="93.66"/>
<line fill="none" stroke="#000000" stroke-miterlimit="10" x1="55.16" y1="25.2" x2="82.6" y2="25.2"/>
<line fill="none" stroke="#000000" stroke-miterlimit="10" x1="10.35" y1="86.52" x2="21.125" y2="86.52"/>
<line fill="none" stroke="#000000" stroke-miterlimit="10" x1="21.875" y1="68.46" x2="21.875" y2="50.4"/>
<line fill="none" stroke="#000000" stroke-miterlimit="10" x1="39.2" y1="42.0" x2="39.2" y2="25.2"/>
<line fill="none" stroke="#000000" stroke-miterlimit="10" x1="24.5" y1="117.6" x2="36.26" y2="117.6"/>
<line fill="none" stroke="#000000" stroke-miterlimit="10" x1="32.9" y1="22.26" x2="32.9" y2="25.2"/>
<line fill="none" stroke="#000000" stroke-miterlimit="10" x1="0.0" y1="84.0" x2="0.0" y2="68.46"/>
<line fill="none" stroke="#000000" stroke-miterlimit="10" x1="73.2" y1="86.52" x2="73.2" y2="94.08"/>
<line fill="none" stroke="#000000" stroke-miterlimit="10" x1="0.0" y1="68.46" x2="21.875" y2="68.46"/>
<line fill="none" stroke="#000000" stroke-miterlimit="10" x1="49.7" y1="42.0" x2="49.7" y2="47.04"/>
<line fill="none" stroke="#000000" stroke-miterlimit="10" x1="32.9" y1="46.2" x2="32.9" y2="47.04"/>
<line fill="none" stroke="#000000" stroke-miterlimit="10" x1="37.1" y1="0.0" x2="39.2" y2="0.0"/>
<line fill="none" stroke="#000000" stroke-miterlimit="10" x1="0.0" y1="68.46" x2="0.0" y2="50.4"/>
<line fill="none" stroke="#000000" stroke-miterlimit="10" x1="32.9" y1="16.8" x2="32.9" y2="22.26"/>
<line fill="none" stroke="#000000" stroke-miterlimit="10" x1="75.1" y1="47.46" x2="67.5" y2="47.46"/>
<line fill="none" stroke="#000000" stroke-miterlimit="10" x1="0.0" y1="25.2" x2="7.5" y2="25.2"/>
<line fill="none" stroke="#000000" stroke-miterlimit="10" x1="0.0" y1="33.6" x2="7.5" y2="33.6"/>
<line fill="none" stroke="#000000" stroke-miterlimit="10" x1="4.0" y1="117.6" x2="4.0" y2="86.52"/>
<line fill="none" stroke="#000000" stroke-miterlimit="10" x1="72.25" y1="84.0" x2="72.25" y2="86.52"/>
<line fill="none" stroke="#000000" stroke-miterlimit="10" x1="58.1" y1="84.0" x2="72.25" y2="84.0"/>
<line fill="none" stroke="#000000" stroke-miterlimit="10" x1="7.5" y1="42.0" x2="17.0" y2="42.0"/>
<line fill="none" stroke="#000000" stroke-miterlimit="10" x1="17.0" y1="25.2" x2="17.0" y2="22.26"/>
<line fill="none" stroke="#000000" stroke-miterlimit="10" x1="36.26" y1="86.52" x2="36.26" y2="117.6"/>
<line fill="none" stroke="#000000" stroke-miterlimit="10" x1="32.9" y1="47.04" x2="49.7" y2="47.04"/>
<line fill="none" stroke="#000000" stroke-miterlimit="10" x1="55.16" y1="25.2" x2="55.16" y2="42.0"/>
<line fill="none" stroke="#000000" stroke-miterlimit="10" x1="7.5" y1="22.26" x2="7.5" y2="25.2"/>
<line fill="none" stroke="#000000" stroke-miterlimit="10" x1="17.0" y1="22.26" x2="17.0" y2="16.8"/>
<line fill="none" stroke="#000000" stroke-miterlimit="10" x1="17.0" y1="16.8" x2="32.9" y2="16.8"/>
<line fill="none" stroke="#000000" stroke-miterlimit="10" x1="58.1" y1="86.52" x2="38.78" y2="86.52"/>
<line fill="none" stroke="#000000" stroke-miterlimit="10" x1="0.0" y1="50.4" x2="7.5" y2="50.4"/>
<line fill="none" stroke="#000000" stroke-miterlimit="10" x1="32.9" y1="50.4" x2="32.9" y2="52.08"/>
<line fill="none" stroke="#000000" stroke-miterlimit="10" x1="17.0" y1="25.2" x2="7.5" y2="25.2"/>
<line fill="none" stroke="#000000" stroke-miterlimit="10" x1="32.9" y1="25.2" x2="32.9" y2="33.6"/>
<line fill="none" stroke="#000000" stroke-miterlimit="10" x1="0.0" y1="22.26" x2="7.5" y2="22.26"/>
<line fill="none" stroke="#000000" stroke-miterlimit="10" x1="39.2" y1="25.2" x2="39.2" y2="0.0"/>
<line fill="none" stroke="#000000" stroke-miterlimit="10" x1="58.1" y1="94.08" x2="73.2" y2="94.08"/>
<line fill="none" stroke="#000000" stroke-miterlimit="10" x1="0.0" y1="22.26" x2="0.0" y2="0.0"/>
<line fill="none" stroke="#000000" stroke-miterlimit="10" x1="21.875" y1="68.46" x2="21.875" y2="84.0"/>
<line fill="none" stroke="#000000" stroke-miterlimit="10" x1="73.2" y1="86.52" x2="79.975" y2="86.52"/>
<line fill="none" stroke="#000000" stroke-miterlimit="10" x1="32.9" y1="52.08" x2="49.7" y2="52.08"/>
<line fill="none" stroke="#000000" stroke-miterlimit="10" x1="75.1" y1="50.4" x2="82.6" y2="50.4"/>
<line fill="none" stroke="#000000" stroke-miterlimit="10" x1="17.0" y1="22.26" x2="7.5" y2="22.26"/>
<line fill="none" stroke="#000000" stroke-miterlimit="10" x1="49.7" y1="50.4" x2="55.16" y2="50.4"/>
<line fill="none" stroke="#000000" stroke-miterlimit="10" x1="24.5" y1="86.52" x2="36.26" y2="86.52"/>
<line fill="none" stroke="#000000" stroke-miterlimit="10" x1="24.5" y1="50.4" x2="32.9" y2="50.4"/>
<line fill="none" stroke="#000000" stroke-miterlimit="10" x1="32.9" y1="42.0" x2="32.9" y2="46.2"/>
<line fill="none" stroke="#000000" stroke-miterlimit="10" x1="17.0" y1="46.2" x2="17.0" y2="47.46"/>
<line fill="none" stroke="#000000" stroke-miterlimit="10" x1="17.0" y1="93.66" x2="17.0" y2="96.6"/>
<line fill="none" stroke="#000000" stroke-miterlimit="10" x1="49.7" y1="52.08" x2="49.7" y2="50.4"/>
<line fill="none" stroke="#000000" stroke-miterlimit="10" x1="55.16" y1="42.0" x2="55.16" y2="46.2"/>
<line fill="none" stroke="#000000" stroke-miterlimit="10" x1="75.1" y1="50.4" x2="75.1" y2="47.46"/>
<line fill="none" stroke="#000000" stroke-miterlimit="10" x1="24.5" y1="84.0" x2="24.5" y2="50.4"/>
<line fill="none" stroke="#000000" stroke-miterlimit="10" x1="17.0" y1="33.6" x2="32.9" y2="33.6"/>
<line fill="none" stroke="#000000" stroke-miterlimit="10" x1="17.0" y1="46.2" x2="32.9" y2="46.2"/>
<line fill="none" stroke="#000000" stroke-miterlimit="10" x1="7.5" y1="33.6" x2="7.5" y2="42.0"/>
<line fill="none" stroke="#000000" stroke-miterlimit="10" x1="58.1" y1="50.4" x2="75.1" y2="50.4"/>
<line fill="none" stroke="#000000" stroke-miterlimit="10" x1="17.0" y1="42.0" x2="17.0" y2="46.2"/>
<line fill="none" stroke="#000000" stroke-miterlimit="10" x1="24.5" y1="96.6" x2="17.0" y2="96.6"/>
<line fill="none" stroke="#000000" stroke-miterlimit="10" x1="82.6" y1="50.4" x2="82.6" y2="84.0"/>
<line fill="none" stroke="#000000" stroke-miterlimit="10" x1="38.78" y1="117.6" x2="79.975" y2="117.6"/>
<line fill="none" stroke="#000000" stroke-miterlimit="10" x1="17.0" y1="47.46" x2="7.5" y2="47.46"/>
<line fill="none" stroke="#000000" stroke-miterlimit="10" x1="58.1" y1="86.52" x2="72.25" y2="86.52"/>
<line fill="none" stroke="#000000" stroke-miterlimit="10" x1="58.1" y1="94.08" x2="58.1" y2="86.52"/>
<line fill="none" stroke="#000000" stroke-miterlimit="10" x1="8.925" y1="86.52" x2="4.0" y2="86.52"/>
</svg>
