<?xml version="1.0" encoding="utf-8"?>
<!-- Generator: Adobe Illustrator 16.0.0, SVG Export Plug-In . SVG Version: 6.00 Build 0)  -->
<!DOCTYPE svg PUBLIC "-//W3C//DTD SVG 1.1//EN" "http://www.w3.org/Graphics/SVG/1.1/DTD/svg11.dtd">
<svg version="1.1" id="Layer_1" xmlns="http://www.w3.org/2000/svg" xmlns:xlink="http://www.w3.org/1999/xlink" x="0px" y="0px"
	 width="595.28px" height="841.89px" viewBox="0 0 595.28 841.89" enable-background="new 0 0 595.28 841.89" xml:space="preserve">
<rect x="152.959" y="332.073" fill="#FFFFFF" stroke="#000000" stroke-miterlimit="10" width="229.034" height="42.371"/>
<g>
	<line fill="none" stroke="#000000" stroke-miterlimit="10" x1="152.959" y1="321.314" x2="152.959" y2="387.493"/>
	<line fill="none" stroke="#000000" stroke-miterlimit="10" x1="162.709" y1="321.314" x2="162.709" y2="387.493"/>
	<line fill="none" stroke="#000000" stroke-miterlimit="10" x1="172.459" y1="321.314" x2="172.459" y2="387.493"/>
	<line fill="none" stroke="#000000" stroke-miterlimit="10" x1="182.21" y1="321.314" x2="182.21" y2="387.493"/>
	<line fill="none" stroke="#000000" stroke-miterlimit="10" x1="191.96" y1="321.314" x2="191.96" y2="387.493"/>
	<line fill="none" stroke="#000000" stroke-miterlimit="10" x1="201.71" y1="321.314" x2="201.71" y2="387.493"/>
	<line fill="none" stroke="#000000" stroke-miterlimit="10" x1="211.459" y1="321.314" x2="211.459" y2="387.493"/>
	<line fill="none" stroke="#000000" stroke-miterlimit="10" x1="221.209" y1="321.314" x2="221.209" y2="387.493"/>
	<line fill="none" stroke="#000000" stroke-miterlimit="10" x1="230.96" y1="321.314" x2="230.96" y2="387.493"/>
	<line fill="none" stroke="#000000" stroke-miterlimit="10" x1="240.71" y1="321.314" x2="240.71" y2="387.493"/>
	<line fill="none" stroke="#000000" stroke-miterlimit="10" x1="250.46" y1="321.314" x2="250.46" y2="387.493"/>
</g>
<line fill="none" stroke="#000000" stroke-miterlimit="10" x1="333.243" y1="319.025" x2="333.243" y2="385.204"/>
<line fill="none" stroke="#000000" stroke-miterlimit="10" x1="342.992" y1="319.025" x2="342.992" y2="385.204"/>
<line fill="none" stroke="#000000" stroke-miterlimit="10" x1="352.742" y1="319.025" x2="352.742" y2="385.204"/>
<line fill="none" stroke="#000000" stroke-miterlimit="10" x1="362.493" y1="319.025" x2="362.493" y2="385.204"/>
<line fill="none" stroke="#000000" stroke-miterlimit="10" x1="372.243" y1="319.025" x2="372.243" y2="385.204"/>
<line fill="none" stroke="#000000" stroke-miterlimit="10" x1="381.993" y1="319.025" x2="381.993" y2="385.204"/>
</svg>
