<?xml version="1.0" encoding="utf-8"?>
<!-- Generator: Adobe Illustrator 16.0.0, SVG Export Plug-In . SVG Version: 6.00 Build 0)  -->
<!DOCTYPE svg PUBLIC "-//W3C//DTD SVG 1.1//EN" "http://www.w3.org/Graphics/SVG/1.1/DTD/svg11.dtd">
<svg version="1.1" id="Layer_1" xmlns="http://www.w3.org/2000/svg" xmlns:xlink="http://www.w3.org/1999/xlink" x="0px" y="0px"
	 width="595.279px" height="841.89px" viewBox="0 0 595.279 841.89" enable-background="new 0 0 595.279 841.89"
	 xml:space="preserve">
<rect x="255.021" y="410.626" fill="#FFFFFF" stroke="#010101" stroke-width="0.2835" stroke-miterlimit="10" width="11.438" height="29.922"/>
<rect x="328.299" y="410.626" fill="#FFFFFF" stroke="#010101" stroke-width="0.2835" stroke-miterlimit="10" width="10.771" height="29.922"/>
<line fill="none" stroke="#010101" stroke-width="0.2835" stroke-miterlimit="10" x1="233.211" y1="402.779" x2="255.021" y2="410.626"/>
<line fill="none" stroke="#010101" stroke-width="0.2835" stroke-miterlimit="10" x1="266.459" y1="410.626" x2="328.299" y2="410.626"/>
<line fill="none" stroke="#010101" stroke-width="0.2835" stroke-miterlimit="10" x1="339.071" y1="410.626" x2="362.344" y2="402.779"/>
<line fill="none" stroke="#010101" stroke-width="0.2835" stroke-miterlimit="10" x1="233.211" y1="402.779" x2="233.211" y2="401.051"/>
<line fill="none" stroke="#010101" stroke-width="0.2835" stroke-miterlimit="10" x1="233.211" y1="401.051" x2="362.344" y2="401.051"/>
<line fill="none" stroke="#010101" stroke-width="0.2835" stroke-miterlimit="10" x1="362.344" y1="401.051" x2="362.344" y2="402.779"/>
<line fill="none" stroke="#010101" stroke-width="0.2835" stroke-miterlimit="10" x1="237.883" y1="404.861" x2="237.883" y2="402.779"/>
<line fill="none" stroke="#010101" stroke-width="0.2835" stroke-miterlimit="10" x1="237.883" y1="402.779" x2="258.878" y2="402.779"/>
<line fill="none" stroke="#010101" stroke-width="0.2835" stroke-miterlimit="10" x1="258.878" y1="402.779" x2="258.878" y2="410.626"/>
<line fill="none" stroke="#010101" stroke-width="0.2835" stroke-miterlimit="10" x1="262.336" y1="410.626" x2="262.336" y2="402.779"/>
<line fill="none" stroke="#010101" stroke-width="0.2835" stroke-miterlimit="10" x1="262.336" y1="402.779" x2="282.151" y2="402.779"/>
<line fill="none" stroke="#010101" stroke-width="0.2835" stroke-miterlimit="10" x1="282.151" y1="402.381" x2="282.151" y2="405.04"/>
<line fill="none" stroke="#010101" stroke-width="0.2835" stroke-miterlimit="10" x1="282.151" y1="405.04" x2="286.274" y2="405.04"/>
<line fill="none" stroke="#010101" stroke-width="0.2835" stroke-miterlimit="10" x1="286.274" y1="405.04" x2="286.274" y2="402.779"/>
<line fill="none" stroke="#010101" stroke-width="0.2835" stroke-miterlimit="10" x1="286.274" y1="402.779" x2="307.553" y2="402.779"/>
<line fill="none" stroke="#010101" stroke-width="0.2835" stroke-miterlimit="10" x1="307.553" y1="402.779" x2="307.553" y2="405.04"/>
<line fill="none" stroke="#010101" stroke-width="0.2835" stroke-miterlimit="10" x1="307.553" y1="405.04" x2="311.01" y2="405.04"/>
<line fill="none" stroke="#010101" stroke-width="0.2835" stroke-miterlimit="10" x1="311.01" y1="405.04" x2="311.01" y2="402.779"/>
<line fill="none" stroke="#010101" stroke-width="0.2835" stroke-miterlimit="10" x1="311.01" y1="402.779" x2="331.49" y2="402.779"/>
<line fill="none" stroke="#010101" stroke-width="0.2835" stroke-miterlimit="10" x1="331.49" y1="402.779" x2="331.49" y2="410.626"/>
<line fill="none" stroke="#010101" stroke-width="0.2835" stroke-miterlimit="10" x1="335.51" y1="411" x2="335.51" y2="402.276"/>
<line fill="none" stroke="#010101" stroke-width="0.2835" stroke-miterlimit="10" x1="335.041" y1="402.779" x2="358.566" y2="402.779"/>
<line fill="none" stroke="#010101" stroke-width="0.2835" stroke-miterlimit="10" x1="357.628" y1="402.433" x2="357.628" y2="405.089"/>
</svg>
