<?xml version="1.0" encoding="utf-8"?>
<!-- Generator: Adobe Illustrator 16.0.0, SVG Export Plug-In . SVG Version: 6.00 Build 0)  -->
<!DOCTYPE svg PUBLIC "-//W3C//DTD SVG 1.1//EN" "http://www.w3.org/Graphics/SVG/1.1/DTD/svg11.dtd">
<svg version="1.1" id="Layer_1" xmlns="http://www.w3.org/2000/svg" xmlns:xlink="http://www.w3.org/1999/xlink" x="0px" y="0px"
	 width="595.28px" height="841.89px" viewBox="0 0 595.28 841.89" enable-background="new 0 0 595.28 841.89" xml:space="preserve">
<line fill="none" stroke="#010101" stroke-width="1.4173" stroke-miterlimit="10" x1="-108.375" y1="597.438" x2="-33.978" y2="597.438"/>
<line fill="none" stroke="#010101" stroke-width="1.4173" stroke-miterlimit="10" x1="-33.978" y1="593.312" x2="-34.026" y2="602.449"/>
<line fill="none" stroke="#010101" stroke-width="1.4173" stroke-miterlimit="10" x1="-34.002" y1="602.328" x2="15.256" y2="602.449"/>
<line fill="none" stroke="#010101" stroke-width="1.4173" stroke-miterlimit="10" x1="15.256" y1="602.449" x2="15.256" y2="592.426"/>
<line fill="none" stroke="#010101" stroke-width="1.4173" stroke-miterlimit="10" x1="15.256" y1="598.041" x2="239.529" y2="598.273"/>
<line fill="none" stroke="#010101" stroke-width="1.4173" stroke-miterlimit="10" x1="239.175" y1="594.097" x2="266.258" y2="594.097"/>
<line fill="none" stroke="#010101" stroke-width="1.4173" stroke-miterlimit="10" x1="266.258" y1="594.097" x2="266.258" y2="601"/>
<line fill="none" stroke="#010101" stroke-width="1.4173" stroke-miterlimit="10" x1="266.258" y1="601" x2="403.24" y2="601"/>
<line fill="none" stroke="#010101" stroke-width="1.4173" stroke-miterlimit="10" x1="403.24" y1="601" x2="403.24" y2="594.097"/>
<line fill="none" stroke="#010101" stroke-width="1.4173" stroke-miterlimit="10" x1="403.24" y1="594.097" x2="427.047" y2="594.097"/>
<line fill="none" stroke="#010101" stroke-width="1.4173" stroke-miterlimit="10" x1="427.047" y1="594.097" x2="427.047" y2="598.691"/>
<line fill="none" stroke="#010101" stroke-width="1.4173" stroke-miterlimit="10" x1="-108.44" y1="446.252" x2="-34.092" y2="446.252"/>
<line fill="none" stroke="#010101" stroke-width="1.4173" stroke-miterlimit="10" x1="-34.026" y1="450.01" x2="-34.026" y2="443.328"/>
<line fill="none" stroke="#010101" stroke-width="1.4173" stroke-miterlimit="10" x1="-34.026" y1="443.328" x2="15.256" y2="443.328"/>
<line fill="none" stroke="#010101" stroke-width="1.4173" stroke-miterlimit="10" x1="15.256" y1="443.328" x2="15.256" y2="450.01"/>
<line fill="none" stroke="#010101" stroke-width="1.4173" stroke-miterlimit="10" x1="15.256" y1="446.669" x2="239.529" y2="446.669"/>
<line fill="none" stroke="#010101" stroke-width="1.4173" stroke-miterlimit="10" x1="239.529" y1="446.669" x2="459.203" y2="446.988"/>
<line fill="none" stroke="#010101" stroke-width="1.4173" stroke-miterlimit="10" x1="592.849" y1="446.988" x2="773.531" y2="446.669"/>
<path fill="none" stroke="#010101" stroke-width="1.4173" stroke-miterlimit="10" d="M771.6,441.656"/>
<path fill="none" stroke="#010101" stroke-width="1.4173" stroke-miterlimit="10" d="M771.6,446.943"/>
<line fill="none" stroke="#010101" stroke-width="1.4173" stroke-miterlimit="10" x1="459.203" y1="480.915" x2="592.849" y2="480.915"/>
<line fill="none" stroke="#010101" stroke-width="1.4173" stroke-miterlimit="10" x1="592.849" y1="481.715" x2="592.849" y2="446.669"/>
<line fill="none" stroke="#010101" stroke-width="1.4173" stroke-miterlimit="10" x1="459.203" y1="446.988" x2="459.203" y2="480.915"/>
<line fill="none" stroke="#010101" stroke-width="1.4173" stroke-miterlimit="10" x1="470.524" y1="446.988" x2="470.524" y2="480.915"/>
<line fill="none" stroke="#010101" stroke-width="1.4173" stroke-miterlimit="10" x1="481.645" y1="446.988" x2="481.645" y2="480.915"/>
<line fill="none" stroke="#010101" stroke-width="1.4173" stroke-miterlimit="10" x1="492.766" y1="446.988" x2="492.766" y2="480.915"/>
<line fill="none" stroke="#010101" stroke-width="1.4173" stroke-miterlimit="10" x1="503.886" y1="446.988" x2="503.886" y2="480.915"/>
<line fill="none" stroke="#010101" stroke-width="1.4173" stroke-miterlimit="10" x1="515.006" y1="446.988" x2="515.006" y2="480.915"/>
<line fill="none" stroke="#010101" stroke-width="1.4173" stroke-miterlimit="10" x1="526.126" y1="446.988" x2="526.126" y2="480.915"/>
<line fill="none" stroke="#010101" stroke-width="1.4173" stroke-miterlimit="10" x1="537.247" y1="446.988" x2="537.247" y2="480.915"/>
<line fill="none" stroke="#010101" stroke-width="1.4173" stroke-miterlimit="10" x1="548.367" y1="446.988" x2="548.367" y2="480.915"/>
<line fill="none" stroke="#010101" stroke-width="1.4173" stroke-miterlimit="10" x1="559.487" y1="446.988" x2="559.487" y2="480.915"/>
<line fill="none" stroke="#010101" stroke-width="1.4173" stroke-miterlimit="10" x1="570.607" y1="446.988" x2="570.607" y2="480.915"/>
<line fill="none" stroke="#010101" stroke-width="1.4173" stroke-miterlimit="10" x1="581.729" y1="446.988" x2="581.729" y2="480.915"/>
<line fill="none" stroke="#010101" stroke-width="1.4173" stroke-miterlimit="10" x1="459.203" y1="446.988" x2="592.849" y2="446.988"/>
<line fill="none" stroke="#010101" stroke-width="1.4173" stroke-miterlimit="10" x1="-178.86" y1="425.439" x2="-178.86" y2="610.769"/>
<line fill="none" stroke="#010101" stroke-width="1.4173" stroke-miterlimit="10" x1="-178.86" y1="611.42" x2="-108.375" y2="611.42"/>
<line fill="none" stroke="#010101" stroke-width="1.4173" stroke-miterlimit="10" x1="-178.86" y1="432.93" x2="-108.785" y2="433.029"/>
<line fill="none" stroke="#010101" stroke-width="1.4173" stroke-miterlimit="10" x1="-108.788" y1="432.93" x2="-108.375" y2="446.252"/>
<line fill="none" stroke="#010101" stroke-width="1.4173" stroke-miterlimit="10" x1="-89.668" y1="446.252" x2="-89.615" y2="597.438"/>
<line fill="none" stroke="#010101" stroke-width="1.4173" stroke-miterlimit="10" x1="-108.375" y1="446.252" x2="-108.25" y2="597.438"/>
<line fill="none" stroke="#010101" stroke-width="1.4173" stroke-miterlimit="10" x1="-108.25" y1="597.438" x2="-108.375" y2="611.42"/>
<line fill="none" stroke="#010101" stroke-width="1.4173" stroke-miterlimit="10" x1="644" y1="445.834" x2="644" y2="598.691"/>
<line fill="none" stroke="#010101" stroke-width="1.4173" stroke-miterlimit="10" x1="754" y1="446.669" x2="754" y2="598.691"/>
<line fill="none" stroke="#010101" stroke-width="1.4173" stroke-miterlimit="10" x1="773.256" y1="433.59" x2="773.256" y2="610.686"/>
<line fill="none" stroke="#010101" stroke-width="1.4173" stroke-miterlimit="10" x1="773.256" y1="433.59" x2="843.125" y2="433.59"/>
<line fill="none" stroke="#010101" stroke-width="1.4173" stroke-miterlimit="10" x1="843.125" y1="432.898" x2="843.125" y2="610.686"/>
<line fill="none" stroke="#010101" stroke-width="1.4173" stroke-miterlimit="10" x1="843.125" y1="610.686" x2="773.256" y2="610.686"/>
<line fill="none" stroke="#010101" stroke-width="1.4173" stroke-miterlimit="10" x1="427.047" y1="598.691" x2="773.256" y2="598.691"/>
<line fill="none" stroke="#010101" stroke-width="1.4173" stroke-miterlimit="10" x1="239.529" y1="598.273" x2="239.468" y2="594.097"/>
</svg>
