<?xml version="1.0" encoding="utf-8"?>
<!-- Generator: Adobe Illustrator 16.0.0, SVG Export Plug-In . SVG Version: 6.00 Build 0)  -->
<!DOCTYPE svg PUBLIC "-//W3C//DTD SVG 1.1//EN" "http://www.w3.org/Graphics/SVG/1.1/DTD/svg11.dtd">
<svg version="1.1" id="Layer_1" xmlns="http://www.w3.org/2000/svg" xmlns:xlink="http://www.w3.org/1999/xlink" x="0px" y="0px"
	 width="595.28px" height="841.89px" viewBox="0 0 595.28 841.89" enable-background="new 0 0 595.28 841.89" xml:space="preserve">
<g>
	
		<line fill="none" stroke="#010101" stroke-width="1.4173" stroke-miterlimit="10" x1="-142.111" y1="505.063" x2="-142.111" y2="496.519"/>
	
		<line fill="none" stroke="#010101" stroke-width="1.4173" stroke-miterlimit="10" x1="-142.111" y1="496.519" x2="204.364" y2="496.519"/>
	
		<line fill="none" stroke="#010101" stroke-width="1.4173" stroke-miterlimit="10" x1="204.364" y1="496.519" x2="204.364" y2="492.634"/>
	
		<line fill="none" stroke="#010101" stroke-width="1.4173" stroke-miterlimit="10" x1="204.364" y1="492.634" x2="230.777" y2="492.634"/>
	
		<line fill="none" stroke="#010101" stroke-width="1.4173" stroke-miterlimit="10" x1="230.777" y1="491.469" x2="230.777" y2="438.643"/>
	
		<line fill="none" stroke="#010101" stroke-width="1.4173" stroke-miterlimit="10" x1="231.942" y1="438.643" x2="236.215" y2="438.643"/>
	
		<line fill="none" stroke="#010101" stroke-width="1.4173" stroke-miterlimit="10" x1="236.215" y1="437.478" x2="236.215" y2="505.841"/>
	
		<line fill="none" stroke="#010101" stroke-width="1.4173" stroke-miterlimit="10" x1="230.777" y1="438.643" x2="230.777" y2="416.503"/>
	
		<line fill="none" stroke="#010101" stroke-width="1.4173" stroke-miterlimit="10" x1="230.777" y1="416.503" x2="178.728" y2="416.503"/>
	
		<line fill="none" stroke="#010101" stroke-width="1.4173" stroke-miterlimit="10" x1="-142.111" y1="334.156" x2="-142.111" y2="344.256"/>
	
		<line fill="none" stroke="#010101" stroke-width="1.4173" stroke-miterlimit="10" x1="-142.111" y1="344.256" x2="156.588" y2="344.256"/>
	
		<line fill="none" stroke="#010101" stroke-width="1.4173" stroke-miterlimit="10" x1="156.588" y1="344.256" x2="156.588" y2="379.214"/>
	
		<line fill="none" stroke="#010101" stroke-width="1.4173" stroke-miterlimit="10" x1="156.588" y1="379.214" x2="177.951" y2="379.214"/>
	
		<line fill="none" stroke="#010101" stroke-width="1.4173" stroke-miterlimit="10" x1="228.835" y1="379.214" x2="236.215" y2="379.214"/>
	
		<line fill="none" stroke="#010101" stroke-width="1.4173" stroke-miterlimit="10" x1="236.215" y1="377.66" x2="236.215" y2="344.256"/>
	
		<line fill="none" stroke="#010101" stroke-width="1.4173" stroke-miterlimit="10" x1="236.992" y1="344.256" x2="159.307" y2="344.256"/>
	
		<line fill="none" stroke="#010101" stroke-width="1.4173" stroke-miterlimit="10" x1="235.438" y1="342.313" x2="235.438" y2="334.156"/>
	
		<line fill="none" stroke="#010101" stroke-width="1.4173" stroke-miterlimit="10" x1="738.063" y1="502.729" x2="738.452" y2="496.514"/>
	
		<line fill="none" stroke="#010101" stroke-width="1.4173" stroke-miterlimit="10" x1="738.452" y1="496.514" x2="714.369" y2="496.514"/>
	
		<line fill="none" stroke="#010101" stroke-width="1.4173" stroke-miterlimit="10" x1="711.262" y1="490.688" x2="711.262" y2="499.621"/>
	
		<line fill="none" stroke="#010101" stroke-width="1.4173" stroke-miterlimit="10" x1="711.262" y1="499.621" x2="668.535" y2="499.621"/>
	
		<line fill="none" stroke="#010101" stroke-width="1.4173" stroke-miterlimit="10" x1="668.535" y1="499.621" x2="668.535" y2="490.688"/>
	
		<line fill="none" stroke="#010101" stroke-width="1.4173" stroke-miterlimit="10" x1="667.759" y1="496.514" x2="656.105" y2="496.514"/>
	
		<line fill="none" stroke="#010101" stroke-width="1.4173" stroke-miterlimit="10" x1="653.775" y1="490.688" x2="653.775" y2="499.621"/>
	
		<line fill="none" stroke="#010101" stroke-width="1.4173" stroke-miterlimit="10" x1="653.775" y1="499.621" x2="612.214" y2="499.621"/>
	
		<line fill="none" stroke="#010101" stroke-width="1.4173" stroke-miterlimit="10" x1="612.214" y1="500.787" x2="612.214" y2="490.688"/>
	
		<line fill="none" stroke="#010101" stroke-width="1.4173" stroke-miterlimit="10" x1="611.049" y1="497.291" x2="391.588" y2="497.291"/>
	
		<line fill="none" stroke="#010101" stroke-width="1.4173" stroke-miterlimit="10" x1="391.199" y1="495.737" x2="391.199" y2="492.241"/>
	
		<line fill="none" stroke="#010101" stroke-width="1.4173" stroke-miterlimit="10" x1="391.199" y1="492.241" x2="367.895" y2="492.241"/>
	
		<line fill="none" stroke="#010101" stroke-width="1.4173" stroke-miterlimit="10" x1="367.895" y1="492.241" x2="367.895" y2="437.862"/>
	
		<line fill="none" stroke="#010101" stroke-width="1.4173" stroke-miterlimit="10" x1="367.895" y1="437.862" x2="361.291" y2="437.862"/>
	
		<line fill="none" stroke="#010101" stroke-width="1.4173" stroke-miterlimit="10" x1="361.68" y1="434.366" x2="361.68" y2="507.39"/>
	
		<line fill="none" stroke="#010101" stroke-width="1.4173" stroke-miterlimit="10" x1="364.593" y1="434.366" x2="364.593" y2="412.614"/>
	
		<line fill="none" stroke="#010101" stroke-width="1.4173" stroke-miterlimit="10" x1="364.593" y1="416.11" x2="418.39" y2="416.11"/>
	
		<line fill="none" stroke="#010101" stroke-width="1.4173" stroke-miterlimit="10" x1="367.895" y1="378.821" x2="361.68" y2="379.21"/>
	
		<line fill="none" stroke="#010101" stroke-width="1.4173" stroke-miterlimit="10" x1="361.68" y1="379.21" x2="361.68" y2="333.376"/>
	
		<line fill="none" stroke="#010101" stroke-width="1.4173" stroke-miterlimit="10" x1="361.68" y1="344.252" x2="738.063" y2="344.252"/>
	
		<line fill="none" stroke="#010101" stroke-width="1.4173" stroke-miterlimit="10" x1="738.063" y1="344.252" x2="738.063" y2="335.706"/>
	
		<line fill="none" stroke="#010101" stroke-width="1.4173" stroke-miterlimit="10" x1="418.39" y1="379.21" x2="438.588" y2="379.21"/>
	
		<line fill="none" stroke="#010101" stroke-width="1.4173" stroke-miterlimit="10" x1="438.588" y1="379.21" x2="438.588" y2="344.252"/>
</g>
</svg>
