<?xml version="1.0" encoding="utf-8"?>
<!-- Generator: Adobe Illustrator 16.0.0, SVG Export Plug-In . SVG Version: 6.00 Build 0)  -->
<!DOCTYPE svg PUBLIC "-//W3C//DTD SVG 1.1//EN" "http://www.w3.org/Graphics/SVG/1.1/DTD/svg11.dtd">
<svg version="1.1" id="Layer_1" xmlns="http://www.w3.org/2000/svg" xmlns:xlink="http://www.w3.org/1999/xlink" x="0px" y="0px"
	 width="595.28px" height="841.89px" viewBox="0 0 595.28 841.89" enable-background="new 0 0 595.28 841.89" xml:space="preserve">
<rect x="234.211" y="448.938" fill="#FFFFFF" stroke="#010101" stroke-width="0.2835" stroke-miterlimit="10" width="2.722" height="3.312"/>
<rect x="261.125" y="448.938" fill="#FFFFFF" stroke="#010101" stroke-width="0.2835" stroke-miterlimit="10" width="2.369" height="3.312"/>
<rect x="285.44" y="448.938" fill="#FFFFFF" stroke="#010101" stroke-width="0.2835" stroke-miterlimit="10" width="2.368" height="3.312"/>
<rect x="307.152" y="448.938" fill="#FFFFFF" stroke="#010101" stroke-width="0.2835" stroke-miterlimit="10" width="2.368" height="3.312"/>
<rect x="331.976" y="448.938" fill="#FFFFFF" stroke="#010101" stroke-width="0.2835" stroke-miterlimit="10" width="2.369" height="3.312"/>
<rect x="358.773" y="448.938" fill="#FFFFFF" stroke="#010101" stroke-width="0.2835" stroke-miterlimit="10" width="2.485" height="3.312"/>
<line fill="none" stroke="#010101" stroke-width="0.2835" stroke-miterlimit="10" x1="236.933" y1="452.25" x2="260.293" y2="452.25"/>
<line fill="none" stroke="#010101" stroke-width="0.2835" stroke-miterlimit="10" x1="263.494" y1="452.25" x2="285.859" y2="452.25"/>
<line fill="none" stroke="#010101" stroke-width="0.2835" stroke-miterlimit="10" x1="287.809" y1="452.25" x2="307.303" y2="452.25"/>
<line fill="none" stroke="#010101" stroke-width="0.2835" stroke-miterlimit="10" x1="309.632" y1="452.25" x2="331.976" y2="452.25"/>
<line fill="none" stroke="#010101" stroke-width="0.2835" stroke-miterlimit="10" x1="334.18" y1="452.25" x2="358.773" y2="452.25"/>
<line fill="none" stroke="#010101" stroke-width="0.2835" stroke-miterlimit="10" x1="236.933" y1="448.938" x2="261.208" y2="448.938"/>
<line fill="none" stroke="#010101" stroke-width="0.2835" stroke-miterlimit="10" x1="263.494" y1="448.938" x2="285.324" y2="448.938"/>
<line fill="none" stroke="#010101" stroke-width="0.2835" stroke-miterlimit="10" x1="287.809" y1="448.938" x2="307.152" y2="448.938"/>
<line fill="none" stroke="#010101" stroke-width="0.2835" stroke-miterlimit="10" x1="310.029" y1="448.938" x2="331.976" y2="448.938"/>
<line fill="none" stroke="#010101" stroke-width="0.2835" stroke-miterlimit="10" x1="334.345" y1="448.938" x2="358.773" y2="448.938"/>
<rect x="234.211" y="405.793" fill="#FFFFFF" stroke="#010101" stroke-width="0.2835" stroke-miterlimit="10" width="2.722" height="3.312"/>
<rect x="261.125" y="405.793" fill="#FFFFFF" stroke="#010101" stroke-width="0.2835" stroke-miterlimit="10" width="2.369" height="3.312"/>
<rect x="285.44" y="405.793" fill="#FFFFFF" stroke="#010101" stroke-width="0.2835" stroke-miterlimit="10" width="2.368" height="3.312"/>
<rect x="307.152" y="405.793" fill="#FFFFFF" stroke="#010101" stroke-width="0.2835" stroke-miterlimit="10" width="2.368" height="3.312"/>
<rect x="331.976" y="405.793" fill="#FFFFFF" stroke="#010101" stroke-width="0.2835" stroke-miterlimit="10" width="2.369" height="3.312"/>
<rect x="358.773" y="405.793" fill="#FFFFFF" stroke="#010101" stroke-width="0.2835" stroke-miterlimit="10" width="2.485" height="3.312"/>
<line fill="none" stroke="#010101" stroke-width="0.2835" stroke-miterlimit="10" x1="236.933" y1="409.106" x2="260.293" y2="409.106"/>
<line fill="none" stroke="#010101" stroke-width="0.2835" stroke-miterlimit="10" x1="263.494" y1="409.106" x2="285.859" y2="409.106"/>
<line fill="none" stroke="#010101" stroke-width="0.2835" stroke-miterlimit="10" x1="287.809" y1="409.106" x2="307.303" y2="409.106"/>
<line fill="none" stroke="#010101" stroke-width="0.2835" stroke-miterlimit="10" x1="309.632" y1="409.106" x2="331.976" y2="409.106"/>
<line fill="none" stroke="#010101" stroke-width="0.2835" stroke-miterlimit="10" x1="334.18" y1="409.106" x2="358.773" y2="409.106"/>
<line fill="none" stroke="#010101" stroke-width="0.2835" stroke-miterlimit="10" x1="236.933" y1="405.793" x2="261.208" y2="405.793"/>
<line fill="none" stroke="#010101" stroke-width="0.2835" stroke-miterlimit="10" x1="263.494" y1="405.793" x2="285.324" y2="405.793"/>
<line fill="none" stroke="#010101" stroke-width="0.2835" stroke-miterlimit="10" x1="287.809" y1="405.793" x2="307.152" y2="405.793"/>
<line fill="none" stroke="#010101" stroke-width="0.2835" stroke-miterlimit="10" x1="310.029" y1="405.793" x2="331.976" y2="405.793"/>
<line fill="none" stroke="#010101" stroke-width="0.2835" stroke-miterlimit="10" x1="334.345" y1="405.793" x2="358.773" y2="405.793"/>
<rect x="234.211" y="365.146" fill="#FFFFFF" stroke="#010101" stroke-width="0.2835" stroke-miterlimit="10" width="2.722" height="3.312"/>
<rect x="261.125" y="365.146" fill="#FFFFFF" stroke="#010101" stroke-width="0.2835" stroke-miterlimit="10" width="2.369" height="3.312"/>
<rect x="285.44" y="365.146" fill="#FFFFFF" stroke="#010101" stroke-width="0.2835" stroke-miterlimit="10" width="2.368" height="3.312"/>
<rect x="307.152" y="365.146" fill="#FFFFFF" stroke="#010101" stroke-width="0.2835" stroke-miterlimit="10" width="2.368" height="3.312"/>
<rect x="331.976" y="365.146" fill="#FFFFFF" stroke="#010101" stroke-width="0.2835" stroke-miterlimit="10" width="2.369" height="3.312"/>
<rect x="358.773" y="365.146" fill="#FFFFFF" stroke="#010101" stroke-width="0.2835" stroke-miterlimit="10" width="2.485" height="3.312"/>
<line fill="none" stroke="#010101" stroke-width="0.2835" stroke-miterlimit="10" x1="236.933" y1="368.458" x2="260.293" y2="368.458"/>
<line fill="none" stroke="#010101" stroke-width="0.2835" stroke-miterlimit="10" x1="263.494" y1="368.458" x2="285.859" y2="368.458"/>
<line fill="none" stroke="#010101" stroke-width="0.2835" stroke-miterlimit="10" x1="287.809" y1="368.458" x2="307.303" y2="368.458"/>
<line fill="none" stroke="#010101" stroke-width="0.2835" stroke-miterlimit="10" x1="309.632" y1="368.458" x2="331.976" y2="368.458"/>
<line fill="none" stroke="#010101" stroke-width="0.2835" stroke-miterlimit="10" x1="334.18" y1="368.458" x2="358.773" y2="368.458"/>
<line fill="none" stroke="#010101" stroke-width="0.2835" stroke-miterlimit="10" x1="236.933" y1="365.146" x2="261.208" y2="365.146"/>
<line fill="none" stroke="#010101" stroke-width="0.2835" stroke-miterlimit="10" x1="263.494" y1="365.146" x2="285.324" y2="365.146"/>
<line fill="none" stroke="#010101" stroke-width="0.2835" stroke-miterlimit="10" x1="287.809" y1="365.146" x2="307.152" y2="365.146"/>
<line fill="none" stroke="#010101" stroke-width="0.2835" stroke-miterlimit="10" x1="310.029" y1="365.146" x2="331.976" y2="365.146"/>
<line fill="none" stroke="#010101" stroke-width="0.2835" stroke-miterlimit="10" x1="334.345" y1="365.146" x2="358.773" y2="365.146"/>
<rect x="234.211" y="323.217" fill="#FFFFFF" stroke="#010101" stroke-width="0.2835" stroke-miterlimit="10" width="2.722" height="3.312"/>
<rect x="261.125" y="323.217" fill="#FFFFFF" stroke="#010101" stroke-width="0.2835" stroke-miterlimit="10" width="2.369" height="3.312"/>
<rect x="285.44" y="323.217" fill="#FFFFFF" stroke="#010101" stroke-width="0.2835" stroke-miterlimit="10" width="2.368" height="3.312"/>
<rect x="307.152" y="323.217" fill="#FFFFFF" stroke="#010101" stroke-width="0.2835" stroke-miterlimit="10" width="2.368" height="3.312"/>
<rect x="331.976" y="323.217" fill="#FFFFFF" stroke="#010101" stroke-width="0.2835" stroke-miterlimit="10" width="2.369" height="3.312"/>
<rect x="358.773" y="323.217" fill="#FFFFFF" stroke="#010101" stroke-width="0.2835" stroke-miterlimit="10" width="2.485" height="3.312"/>
<line fill="none" stroke="#010101" stroke-width="0.2835" stroke-miterlimit="10" x1="236.933" y1="326.53" x2="260.293" y2="326.53"/>
<line fill="none" stroke="#010101" stroke-width="0.2835" stroke-miterlimit="10" x1="263.494" y1="326.53" x2="285.859" y2="326.53"/>
<line fill="none" stroke="#010101" stroke-width="0.2835" stroke-miterlimit="10" x1="287.809" y1="326.53" x2="307.303" y2="326.53"/>
<line fill="none" stroke="#010101" stroke-width="0.2835" stroke-miterlimit="10" x1="309.632" y1="326.53" x2="331.976" y2="326.53"/>
<line fill="none" stroke="#010101" stroke-width="0.2835" stroke-miterlimit="10" x1="334.18" y1="326.53" x2="358.773" y2="326.53"/>
<line fill="none" stroke="#010101" stroke-width="0.2835" stroke-miterlimit="10" x1="236.933" y1="323.217" x2="261.208" y2="323.217"/>
<line fill="none" stroke="#010101" stroke-width="0.2835" stroke-miterlimit="10" x1="263.494" y1="323.217" x2="285.324" y2="323.217"/>
<line fill="none" stroke="#010101" stroke-width="0.2835" stroke-miterlimit="10" x1="287.809" y1="323.217" x2="307.152" y2="323.217"/>
<line fill="none" stroke="#010101" stroke-width="0.2835" stroke-miterlimit="10" x1="310.029" y1="323.217" x2="331.976" y2="323.217"/>
<line fill="none" stroke="#010101" stroke-width="0.2835" stroke-miterlimit="10" x1="334.345" y1="323.217" x2="358.773" y2="323.217"/>
<rect x="234.211" y="477.168" fill="#FFFFFF" stroke="#010101" stroke-width="0.2835" stroke-miterlimit="10" width="2.722" height="3.312"/>
<rect x="261.125" y="477.168" fill="#FFFFFF" stroke="#010101" stroke-width="0.2835" stroke-miterlimit="10" width="2.369" height="3.312"/>
<rect x="285.44" y="477.168" fill="#FFFFFF" stroke="#010101" stroke-width="0.2835" stroke-miterlimit="10" width="2.368" height="3.312"/>
<rect x="307.152" y="477.168" fill="#FFFFFF" stroke="#010101" stroke-width="0.2835" stroke-miterlimit="10" width="2.368" height="3.312"/>
<rect x="331.976" y="477.168" fill="#FFFFFF" stroke="#010101" stroke-width="0.2835" stroke-miterlimit="10" width="2.369" height="3.312"/>
<rect x="358.773" y="477.168" fill="#FFFFFF" stroke="#010101" stroke-width="0.2835" stroke-miterlimit="10" width="2.485" height="3.312"/>
<line fill="none" stroke="#010101" stroke-width="0.2835" stroke-miterlimit="10" x1="236.933" y1="480.48" x2="260.293" y2="480.48"/>
<line fill="none" stroke="#010101" stroke-width="0.2835" stroke-miterlimit="10" x1="263.494" y1="480.48" x2="285.859" y2="480.48"/>
<line fill="none" stroke="#010101" stroke-width="0.2835" stroke-miterlimit="10" x1="288.242" y1="480.48" x2="307.736" y2="480.48"/>
<line fill="none" stroke="#010101" stroke-width="0.2835" stroke-miterlimit="10" x1="309.632" y1="480.48" x2="331.976" y2="480.48"/>
<line fill="none" stroke="#010101" stroke-width="0.2835" stroke-miterlimit="10" x1="334.18" y1="480.48" x2="358.773" y2="480.48"/>
<line fill="none" stroke="#010101" stroke-width="0.2835" stroke-miterlimit="10" x1="236.933" y1="477.168" x2="261.208" y2="477.168"/>
<line fill="none" stroke="#010101" stroke-width="0.2835" stroke-miterlimit="10" x1="263.494" y1="477.168" x2="285.324" y2="477.168"/>
<line fill="none" stroke="#010101" stroke-width="0.2835" stroke-miterlimit="10" x1="288.242" y1="477.168" x2="307.586" y2="477.168"/>
<line fill="none" stroke="#010101" stroke-width="0.2835" stroke-miterlimit="10" x1="310.029" y1="477.168" x2="331.976" y2="477.168"/>
<line fill="none" stroke="#010101" stroke-width="0.2835" stroke-miterlimit="10" x1="334.345" y1="477.168" x2="358.773" y2="477.168"/>
<rect x="234.211" y="515.896" fill="#FFFFFF" stroke="#010101" stroke-width="0.2835" stroke-miterlimit="10" width="2.722" height="3.312"/>
<rect x="261.125" y="515.896" fill="#FFFFFF" stroke="#010101" stroke-width="0.2835" stroke-miterlimit="10" width="2.369" height="3.312"/>
<rect x="285.44" y="515.896" fill="#FFFFFF" stroke="#010101" stroke-width="0.2835" stroke-miterlimit="10" width="2.368" height="3.312"/>
<rect x="307.152" y="515.896" fill="#FFFFFF" stroke="#010101" stroke-width="0.2835" stroke-miterlimit="10" width="2.368" height="3.312"/>
<rect x="331.976" y="515.896" fill="#FFFFFF" stroke="#010101" stroke-width="0.2835" stroke-miterlimit="10" width="2.369" height="3.312"/>
<rect x="358.773" y="515.896" fill="#FFFFFF" stroke="#010101" stroke-width="0.2835" stroke-miterlimit="10" width="2.485" height="3.312"/>
<line fill="none" stroke="#010101" stroke-width="0.2835" stroke-miterlimit="10" x1="236.933" y1="519.208" x2="260.293" y2="519.208"/>
<line fill="none" stroke="#010101" stroke-width="0.2835" stroke-miterlimit="10" x1="263.494" y1="519.208" x2="285.859" y2="519.208"/>
<line fill="none" stroke="#010101" stroke-width="0.2835" stroke-miterlimit="10" x1="288.317" y1="519.208" x2="307.812" y2="519.208"/>
<line fill="none" stroke="#010101" stroke-width="0.2835" stroke-miterlimit="10" x1="309.632" y1="519.208" x2="331.976" y2="519.208"/>
<line fill="none" stroke="#010101" stroke-width="0.2835" stroke-miterlimit="10" x1="334.18" y1="519.208" x2="358.773" y2="519.208"/>
<line fill="none" stroke="#010101" stroke-width="0.2835" stroke-miterlimit="10" x1="236.933" y1="515.896" x2="261.208" y2="515.896"/>
<line fill="none" stroke="#010101" stroke-width="0.2835" stroke-miterlimit="10" x1="263.494" y1="515.896" x2="285.324" y2="515.896"/>
<line fill="none" stroke="#010101" stroke-width="0.2835" stroke-miterlimit="10" x1="288.317" y1="515.896" x2="307.661" y2="515.896"/>
<line fill="none" stroke="#010101" stroke-width="0.2835" stroke-miterlimit="10" x1="310.029" y1="515.896" x2="331.976" y2="515.896"/>
<line fill="none" stroke="#010101" stroke-width="0.2835" stroke-miterlimit="10" x1="334.345" y1="515.896" x2="358.773" y2="515.896"/>
</svg>
