<?xml version="1.0" encoding="utf-8"?>
<!-- Generator: Adobe Illustrator 16.0.0, SVG Export Plug-In . SVG Version: 6.00 Build 0)  -->
<!DOCTYPE svg PUBLIC "-//W3C//DTD SVG 1.1//EN" "http://www.w3.org/Graphics/SVG/1.1/DTD/svg11.dtd">
<svg version="1.1" id="Layer_1" xmlns="http://www.w3.org/2000/svg" xmlns:xlink="http://www.w3.org/1999/xlink" x="0px" y="0px"
	 width="595.28px" height="841.89px" viewBox="0 0 595.28 841.89" enable-background="new 0 0 595.28 841.89" xml:space="preserve">
<g>
	
		<rect x="239.211" y="407.664" fill="#FFFFFF" stroke="#010101" stroke-width="0.2835" stroke-miterlimit="10" width="5.071" height="38.387"/>
	
		<rect x="264.022" y="407.664" fill="#FFFFFF" stroke="#010101" stroke-width="0.2835" stroke-miterlimit="10" width="5.072" height="38.387"/>
	
		<rect x="288.836" y="407.664" fill="#FFFFFF" stroke="#010101" stroke-width="0.2835" stroke-miterlimit="10" width="5.071" height="38.387"/>
	
		<rect x="313.647" y="407.664" fill="#FFFFFF" stroke="#010101" stroke-width="0.2835" stroke-miterlimit="10" width="5.071" height="38.387"/>
	
		<rect x="338.46" y="407.664" fill="#FFFFFF" stroke="#010101" stroke-width="0.2835" stroke-miterlimit="10" width="5.072" height="38.387"/>
	
		<rect x="363.272" y="407.664" fill="#FFFFFF" stroke="#010101" stroke-width="0.2835" stroke-miterlimit="10" width="5.071" height="38.387"/>
</g>
<g>
	
		<rect x="239.337" y="404.352" fill="#FFFFFF" stroke="#010101" stroke-width="0.2835" stroke-miterlimit="10" width="2.774" height="3.312"/>
	
		<rect x="266.776" y="404.352" fill="#FFFFFF" stroke="#010101" stroke-width="0.2835" stroke-miterlimit="10" width="2.415" height="3.312"/>
	
		<rect x="291.566" y="404.352" fill="#FFFFFF" stroke="#010101" stroke-width="0.2835" stroke-miterlimit="10" width="2.413" height="3.312"/>
	
		<rect x="313.701" y="404.352" fill="#FFFFFF" stroke="#010101" stroke-width="0.2835" stroke-miterlimit="10" width="2.414" height="3.312"/>
	
		<rect x="338.489" y="404.352" fill="#FFFFFF" stroke="#010101" stroke-width="0.2835" stroke-miterlimit="10" width="2.415" height="3.312"/>
	
		<rect x="365.811" y="404.352" fill="#FFFFFF" stroke="#010101" stroke-width="0.2835" stroke-miterlimit="10" width="2.533" height="3.312"/>
	
		<line fill="none" stroke="#010101" stroke-width="0.2835" stroke-miterlimit="10" x1="244.403" y1="407.664" x2="264.125" y2="407.664"/>
	
		<line fill="none" stroke="#010101" stroke-width="0.2835" stroke-miterlimit="10" x1="269.191" y1="407.664" x2="288.913" y2="407.664"/>
	
		<line fill="none" stroke="#010101" stroke-width="0.2835" stroke-miterlimit="10" x1="293.979" y1="407.664" x2="313.854" y2="407.664"/>
	
		<line fill="none" stroke="#010101" stroke-width="0.2835" stroke-miterlimit="10" x1="318.414" y1="407.664" x2="338.489" y2="407.664"/>
	
		<line fill="none" stroke="#010101" stroke-width="0.2835" stroke-miterlimit="10" x1="343.556" y1="407.664" x2="363.276" y2="407.664"/>
	
		<line fill="none" stroke="#010101" stroke-width="0.2835" stroke-miterlimit="10" x1="242.111" y1="404.352" x2="266.86" y2="404.352"/>
	
		<line fill="none" stroke="#010101" stroke-width="0.2835" stroke-miterlimit="10" x1="269.191" y1="404.352" x2="291.447" y2="404.352"/>
	
		<line fill="none" stroke="#010101" stroke-width="0.2835" stroke-miterlimit="10" x1="293.979" y1="404.352" x2="313.701" y2="404.352"/>
	
		<line fill="none" stroke="#010101" stroke-width="0.2835" stroke-miterlimit="10" x1="316.115" y1="404.352" x2="338.489" y2="404.352"/>
	
		<line fill="none" stroke="#010101" stroke-width="0.2835" stroke-miterlimit="10" x1="340.904" y1="404.352" x2="365.811" y2="404.352"/>
</g>
</svg>
