<?xml version="1.0" encoding="utf-8"?>
<!-- Generator: Adobe Illustrator 16.0.0, SVG Export Plug-In . SVG Version: 6.00 Build 0)  -->
<!DOCTYPE svg PUBLIC "-//W3C//DTD SVG 1.1//EN" "http://www.w3.org/Graphics/SVG/1.1/DTD/svg11.dtd">
<svg version="1.1" id="Layer_1" xmlns="http://www.w3.org/2000/svg" xmlns:xlink="http://www.w3.org/1999/xlink" x="0px" y="0px"
	 width="595.28px" height="841.89px" viewBox="0 0 595.28 841.89" enable-background="new 0 0 595.28 841.89" xml:space="preserve">
<g>
	
		<line fill="none" stroke="#010101" stroke-width="1.4173" stroke-miterlimit="10" x1="-142.201" y1="499.614" x2="-142.201" y2="496.273"/>
	
		<line fill="none" stroke="#010101" stroke-width="1.4173" stroke-miterlimit="10" x1="-142.201" y1="495.438" x2="-66.19" y2="495.438"/>
	
		<line fill="none" stroke="#010101" stroke-width="1.4173" stroke-miterlimit="10" x1="-67.026" y1="492.097" x2="-67.026" y2="500.449"/>
	
		<line fill="none" stroke="#010101" stroke-width="1.4173" stroke-miterlimit="10" x1="-67.026" y1="500.449" x2="-17.744" y2="500.449"/>
	
		<line fill="none" stroke="#010101" stroke-width="1.4173" stroke-miterlimit="10" x1="-17.744" y1="500.449" x2="-17.744" y2="490.426"/>
	
		<line fill="none" stroke="#010101" stroke-width="1.4173" stroke-miterlimit="10" x1="-17.744" y1="496.273" x2="206.529" y2="496.273"/>
	
		<line fill="none" stroke="#010101" stroke-width="1.4173" stroke-miterlimit="10" x1="206.529" y1="496.273" x2="206.529" y2="460.355"/>
	
		<line fill="none" stroke="#010101" stroke-width="1.4173" stroke-miterlimit="10" x1="138.036" y1="496.273" x2="138.036" y2="474.139"/>
	
		<line fill="none" stroke="#010101" stroke-width="1.4173" stroke-miterlimit="10" x1="138.036" y1="474.139" x2="118.407" y2="474.139"/>
	
		<line fill="none" stroke="#010101" stroke-width="1.4173" stroke-miterlimit="10" x1="138.036" y1="469.544" x2="138.036" y2="461.191"/>
	
		<line fill="none" stroke="#010101" stroke-width="1.4173" stroke-miterlimit="10" x1="138.036" y1="461.191" x2="118.407" y2="461.191"/>
	
		<line fill="none" stroke="#010101" stroke-width="1.4173" stroke-miterlimit="10" x1="206.529" y1="492.097" x2="233.258" y2="492.097"/>
	
		<line fill="none" stroke="#010101" stroke-width="1.4173" stroke-miterlimit="10" x1="233.258" y1="492.097" x2="233.258" y2="499"/>
	<line fill="none" stroke="#010101" stroke-width="1.4173" stroke-miterlimit="10" x1="233.258" y1="499" x2="370.24" y2="499"/>
	<line fill="none" stroke="#010101" stroke-width="1.4173" stroke-miterlimit="10" x1="370.24" y1="499" x2="370.24" y2="492.516"/>
	
		<line fill="none" stroke="#010101" stroke-width="1.4173" stroke-miterlimit="10" x1="371.076" y1="492.097" x2="394.047" y2="492.097"/>
	
		<line fill="none" stroke="#010101" stroke-width="1.4173" stroke-miterlimit="10" x1="394.047" y1="492.516" x2="394.047" y2="496.273"/>
	
		<line fill="none" stroke="#010101" stroke-width="1.4173" stroke-miterlimit="10" x1="394.047" y1="496.691" x2="738.6" y2="496.691"/>
	
		<line fill="none" stroke="#010101" stroke-width="1.4173" stroke-miterlimit="10" x1="738.6" y1="496.691" x2="738.6" y2="499.615"/>
	
		<line fill="none" stroke="#010101" stroke-width="1.4173" stroke-miterlimit="10" x1="268.335" y1="499" x2="268.335" y2="462.443"/>
	
		<line fill="none" stroke="#010101" stroke-width="1.4173" stroke-miterlimit="10" x1="268.335" y1="462.443" x2="232.835" y2="462.443"/>
	
		<line fill="none" stroke="#010101" stroke-width="1.4173" stroke-miterlimit="10" x1="302.582" y1="499" x2="302.582" y2="413.58"/>
	
		<line fill="none" stroke="#010101" stroke-width="1.4173" stroke-miterlimit="10" x1="302.582" y1="429.033" x2="366.48" y2="429.033"/>
	
		<line fill="none" stroke="#010101" stroke-width="1.4173" stroke-miterlimit="10" x1="334.531" y1="429.033" x2="334.531" y2="415.668"/>
	
		<line fill="none" stroke="#010101" stroke-width="1.4173" stroke-miterlimit="10" x1="366.48" y1="417.756" x2="366.48" y2="457.015"/>
	
		<line fill="none" stroke="#010101" stroke-width="1.4173" stroke-miterlimit="10" x1="366.48" y1="417.756" x2="389.451" y2="417.756"/>
	
		<line fill="none" stroke="#010101" stroke-width="1.4173" stroke-miterlimit="10" x1="366.48" y1="457.015" x2="436.645" y2="457.015"/>
	
		<line fill="none" stroke="#010101" stroke-width="1.4173" stroke-miterlimit="10" x1="436.645" y1="457.015" x2="436.645" y2="462.443"/>
	
		<line fill="none" stroke="#010101" stroke-width="1.4173" stroke-miterlimit="10" x1="415.762" y1="457.015" x2="415.762" y2="417.756"/>
	
		<line fill="none" stroke="#010101" stroke-width="1.4173" stroke-miterlimit="10" x1="415.762" y1="417.756" x2="436.645" y2="417.756"/>
	
		<line fill="none" stroke="#010101" stroke-width="1.4173" stroke-miterlimit="10" x1="436.645" y1="496.691" x2="436.645" y2="492.097"/>
	
		<line fill="none" stroke="#010101" stroke-width="1.4173" stroke-miterlimit="10" x1="-142.201" y1="421.516" x2="-69.541" y2="421.516"/>
	
		<line fill="none" stroke="#010101" stroke-width="1.4173" stroke-miterlimit="10" x1="8.14" y1="423.604" x2="107.957" y2="423.604"/>
	
		<line fill="none" stroke="#010101" stroke-width="1.4173" stroke-miterlimit="10" x1="109.627" y1="421.516" x2="206.529" y2="421.516"/>
	
		<line fill="none" stroke="#010101" stroke-width="1.4173" stroke-miterlimit="10" x1="-29.03" y1="420.263" x2="64.522" y2="420.263"/>
	
		<line fill="none" stroke="#010101" stroke-width="1.4173" stroke-miterlimit="10" x1="6.47" y1="417.756" x2="107.957" y2="417.756"/>
	
		<line fill="none" stroke="#010101" stroke-width="1.4173" stroke-miterlimit="10" x1="-142.201" y1="340.493" x2="-141.375" y2="344.251"/>
	
		<line fill="none" stroke="#010101" stroke-width="1.4173" stroke-miterlimit="10" x1="-141.375" y1="344.251" x2="-67.026" y2="344.251"/>
	
		<line fill="none" stroke="#010101" stroke-width="1.4173" stroke-miterlimit="10" x1="-67.026" y1="348.01" x2="-67.026" y2="341.328"/>
	
		<line fill="none" stroke="#010101" stroke-width="1.4173" stroke-miterlimit="10" x1="-67.026" y1="341.328" x2="-17.744" y2="341.328"/>
	
		<line fill="none" stroke="#010101" stroke-width="1.4173" stroke-miterlimit="10" x1="-17.744" y1="341.328" x2="-17.744" y2="348.01"/>
	
		<line fill="none" stroke="#010101" stroke-width="1.4173" stroke-miterlimit="10" x1="-17.744" y1="344.669" x2="206.529" y2="344.669"/>
	
		<line fill="none" stroke="#010101" stroke-width="1.4173" stroke-miterlimit="10" x1="138.036" y1="345.504" x2="138.036" y2="378.498"/>
	
		<line fill="none" stroke="#010101" stroke-width="1.4173" stroke-miterlimit="10" x1="117.981" y1="370.145" x2="138.036" y2="370.145"/>
	
		<line fill="none" stroke="#010101" stroke-width="1.4173" stroke-miterlimit="10" x1="118.407" y1="382.674" x2="143.039" y2="382.674"/>
	
		<line fill="none" stroke="#010101" stroke-width="1.4173" stroke-miterlimit="10" x1="206.529" y1="382.674" x2="206.529" y2="346.339"/>
	
		<line fill="none" stroke="#010101" stroke-width="1.4173" stroke-miterlimit="10" x1="254.967" y1="365.133" x2="254.967" y2="344.251"/>
	
		<line fill="none" stroke="#010101" stroke-width="1.4173" stroke-miterlimit="10" x1="257.891" y1="344.669" x2="352.695" y2="344.669"/>
	
		<line fill="none" stroke="#010101" stroke-width="1.4173" stroke-miterlimit="10" x1="300.908" y1="344.251" x2="300.908" y2="365.133"/>
	
		<line fill="none" stroke="#010101" stroke-width="1.4173" stroke-miterlimit="10" x1="328.055" y1="344.669" x2="328.055" y2="367.222"/>
	
		<line fill="none" stroke="#010101" stroke-width="1.4173" stroke-miterlimit="10" x1="328.055" y1="368.057" x2="352.695" y2="368.057"/>
	
		<line fill="none" stroke="#010101" stroke-width="1.4173" stroke-miterlimit="10" x1="209.862" y1="344.669" x2="254.967" y2="344.669"/>
	
		<line fill="none" stroke="#010101" stroke-width="1.4173" stroke-miterlimit="10" x1="353.534" y1="344.669" x2="738.6" y2="344.669"/>
	
		<line fill="none" stroke="#010101" stroke-width="1.4173" stroke-miterlimit="10" x1="738.6" y1="343.833" x2="738.6" y2="339.657"/>
	
		<line fill="none" stroke="#010101" stroke-width="1.4173" stroke-miterlimit="10" x1="426.203" y1="378.915" x2="559.849" y2="378.915"/>
</g>
</svg>
